<?xml version="1.0" standalone="no"?>

<svg version="1.0" xmlns="http://www.w3.org/2000/svg" width="2048.000000pt" height="1152.000000pt" viewBox="0 0 2048.000000 1152.000000" preserveAspectRatio="xMidYMid meet">
<metadata>
Created by potrace 1.16, written by Peter Selinger 2001-2019
</metadata>
<g transform="translate(0.000000,1152.000000) scale(0.100000,-0.100000)" fill="#000000" stroke="none">
<path d="M1847 7203 c-4 -3 -7 -18 -7 -33 0 -26 3 -27 58 -33 82 -9 144 -33&#xA;180 -70 65 -67 62 -17 62 -1126 0 -1090 0 -1082 -55 -1160 -14 -22 -43 -51&#xA;-63 -65 -43 -29 -138 -56 -200 -56 l-43 0 3 -42 3 -43 949 -7 c523 -4 951 -6&#xA;953 -4 2 2 8 73 14 157 23 359 132 694 299 918 134 180 298 279 515 311 247&#xA;37 468 -66 579 -271 133 -244 136 -637 5 -840 -82 -128 -192 -187 -367 -196&#xA;-220 -12 -352 45 -404 176 -22 55 -22 69 -26 529 l-4 473 -21 -7 c-73 -22&#xA;-217 -158 -282 -264 l-33 -55 -4 -375 c-4 -274 -8 -384 -18 -410 -19 -51 -57&#xA;-99 -85 -106 -15 -4 -25 -13 -25 -24 0 -16 33 -18 493 -24 623 -9 705 -1 885&#xA;85 61 30 104 60 160 114 89 84 141 166 179 280 25 73 27 94 27 235 1 132 -3&#xA;167 -22 234 -49 170 -139 300 -266 385 -101 68 -267 131 -343 131 -45 0 -30&#xA;17 50 56 197 95 325 299 327 521 1 235 -116 428 -322 527 -162 78 -180 79&#xA;-775 84 l-523 3 0 -35 c0 -34 2 -36 35 -36 46 0 125 -27 154 -54 13 -11 33&#xA;-41 45 -66 21 -44 21 -58 24 -679 l3 -633 -49 -72 c-56 -81 -90 -146 -195&#xA;-367 -41 -86 -92 -183 -113 -215 -89 -134 -204 -228 -343 -281 -124 -48 -324&#xA;-65 -473 -42 -138 21 -211 70 -251 168 l-22 56 -3 980 c-2 667 1 996 8 1030&#xA;22 103 87 158 203 172 46 6 47 7 47 39 l0 34 -458 0 c-252 0 -462 -3 -465 -7z&#xA;m2855 -112 c123 -48 209 -147 247 -289 82 -304 -17 -623 -222 -717 -31 -15&#xA;-112 -35 -198 -49 -79 -13 -161 -32 -182 -40 -32 -14 -38 -15 -43 -2 -11 29 2&#xA;990 14 1027 14 42 48 76 88 89 52 17 233 5 296 -19z"></path>
<path d="M6874 6965 c0 -110 2 -156 3 -103 2 53 2 143 0 200 -1 57 -3 13 -3&#xA;-97z"></path>
<path d="M8942 6217 c-18 -7 -50 -30 -72 -51 -96 -93 -89 -263 14 -354 65 -57&#xA;194 -64 277 -15 26 15 29 23 29 65 0 26 -2 48 -4 48 -2 0 -16 -21 -31 -46 -33&#xA;-57 -77 -84 -134 -84 -37 0 -49 6 -81 38 -112 112 -76 365 57 398 60 15 141&#xA;-38 165 -108 16 -45 29 -32 26 24 -3 47 -6 54 -37 72 -41 24 -161 31 -209 13z"></path>
<path d="M9435 6214 c-85 -44 -129 -119 -129 -219 0 -78 20 -129 71 -177 32&#xA;-31 101 -58 147 -58 79 0 166 53 203 124 21 41 28 137 13 190 -16 57 -63 114&#xA;-114 137 -51 23 -149 25 -191 3z m151 -10 c108 -52 126 -294 29 -391 -29 -29&#xA;-40 -33 -84 -33 -65 0 -95 19 -126 79 -33 67 -41 144 -21 222 31 118 110 166&#xA;202 123z"></path>
<path d="M10425 6217 c-74 -34 -89 -144 -26 -195 9 -7 49 -29 88 -48 81 -39&#xA;103 -63 103 -110 0 -53 -30 -79 -88 -79 -42 0 -56 5 -81 29 -17 17 -36 45 -43&#xA;63 -17 47 -28 41 -28 -17 0 -50 1 -51 43 -70 52 -24 146 -26 187 -5 38 20 60&#xA;63 60 118 0 58 -25 84 -129 136 -84 43 -101 61 -101 109 0 36 27 61 72 68 42&#xA;7 91 -29 110 -81 17 -49 28 -43 28 13 0 43 -3 50 -27 61 -43 20 -133 24 -168&#xA;8z"></path>
<path d="M12295 6217 c-38 -18 -90 -69 -111 -110 -22 -42 -29 -133 -14 -187&#xA;18 -68 89 -134 161 -150 197 -44 345 157 252 341 -41 79 -91 111 -185 116 -48&#xA;2 -83 -1 -103 -10z m156 -20 c104 -70 118 -283 25 -381 -30 -33 -38 -36 -89&#xA;-36 -51 0 -60 3 -91 35 -81 81 -88 267 -13 352 51 58 110 69 168 30z"></path>
<path d="M15680 6219 c-86 -36 -140 -123 -140 -224 1 -154 122 -255 275 -227&#xA;84 16 109 37 113 96 2 25 -1 46 -5 46 -4 0 -19 -20 -32 -45 -59 -112 -188&#xA;-114 -251 -3 -22 37 -25 55 -25 138 0 85 3 100 27 141 64 109 199 98 253 -20&#xA;10 -23 22 -41 27 -41 5 0 8 23 6 52 -3 49 -5 52 -43 72 -45 24 -164 32 -205&#xA;15z"></path>
<path d="M7657 6210 c38 -15 43 -41 43 -217 0 -176 -3 -188 -45 -211 -15 -9&#xA;23 -11 158 -12 l177 0 0 63 -1 62 -18 -35 c-32 -61 -56 -75 -123 -75 -87 0&#xA;-88 3 -88 204 0 91 3 176 6 188 3 12 18 26 33 32 20 7 4 9 -69 10 -64 0 -88&#xA;-3 -73 -9z"></path>
<path d="M8100 6209 c13 -6 28 -15 32 -22 4 -7 8 -94 8 -195 l0 -182 -32 -20&#xA;-33 -20 125 0 c147 0 190 10 224 51 53 63 25 145 -59 174 -34 11 -37 15 -20&#xA;21 44 15 75 56 75 97 0 88 -38 107 -217 106 -95 0 -122 -3 -103 -10z m223 -19&#xA;c34 -27 43 -76 23 -123 -17 -42 -51 -60 -105 -55 l-36 3 -3 84 c-2 46 -1 90 2&#xA;98 9 21 89 16 119 -7z m7 -205 c37 -19 50 -43 50 -94 0 -31 -7 -49 -28 -73&#xA;-25 -27 -36 -32 -80 -32 -28 -1 -54 3 -59 7 -10 10 -18 171 -9 192 7 20 87 20&#xA;126 0z"></path>
<path d="M9830 6213 c48 -18 50 -26 50 -218 0 -192 -2 -200 -50 -218 -8 -3 19&#xA;-6 60 -6 l75 -1 -32 20 -33 20 0 165 c0 91 2 165 4 165 2 0 30 -35 62 -77 162&#xA;-214 227 -293 240 -293 12 0 14 35 14 203 0 111 4 207 8 213 4 6 16 16 27 22&#xA;16 9 7 11 -50 12 l-70 0 33 -20 32 -20 0 -150 c0 -82 -3 -150 -6 -150 -8 0 2&#xA;-12 -147 184 l-119 156 -56 -1 c-32 0 -50 -3 -42 -6z"></path>
<path d="M10747 6210 c37 -15 43 -42 43 -187 0 -150 10 -188 60 -225 56 -41&#xA;182 -38 228 5 46 42 52 68 53 214 0 76 4 146 8 157 4 10 18 24 32 32 22 12 17&#xA;13 -51 13 -73 0 -74 0 -42 -14 l32 -14 0 -151 c0 -172 -9 -202 -65 -226 -76&#xA;-31 -159 -2 -182 66 -12 36 -17 258 -7 297 3 12 18 26 33 32 20 7 4 9 -69 10&#xA;-64 0 -88 -3 -73 -9z"></path>
<path d="M11303 6204 l27 -15 0 -194 0 -194 -27 -15 c-26 -14 -14 -15 150 -16&#xA;l177 0 0 60 c0 33 -2 60 -5 60 -2 0 -14 -18 -25 -41 -15 -28 -33 -45 -58 -56&#xA;-42 -17 -120 -13 -133 8 -11 17 -12 369 -1 386 4 7 19 16 32 22 19 7 3 10 -70&#xA;10 -90 0 -93 -1 -67 -15z"></path>
<path d="M11670 6158 l0 -63 19 42 c22 48 62 73 116 73 l35 0 0 -200 0 -200&#xA;-32 -20 -33 -20 95 0 c90 1 93 2 68 16 -15 8 -30 25 -33 37 -3 12 -4 103 -3&#xA;202 l3 180 25 3 c13 2 42 -1 63 -8 32 -9 42 -19 60 -58 21 -46 22 -46 25 -18&#xA;2 16 1 44 -3 63 l-6 33 -199 0 -200 0 0 -62z"></path>
<path d="M12723 6205 l27 -16 0 -194 0 -194 -27 -15 c-27 -14 -23 -15 67 -15&#xA;91 0 94 0 62 14 l-33 14 3 88 c3 86 4 88 28 90 21 2 35 -12 95 -100 l70 -102&#xA;55 -3 55 -2 -28 21 c-26 20 -133 156 -143 182 -2 7 11 21 30 31 20 11 42 34&#xA;52 54 15 32 15 41 3 76 -23 66 -59 80 -214 84 -122 2 -128 1 -102 -13z m227&#xA;-30 c20 -21 25 -35 25 -76 0 -45 -4 -54 -33 -80 -25 -23 -42 -29 -77 -29 l-45&#xA;0 0 111 0 112 52 -6 c37 -5 59 -14 78 -32z"></path>
<path d="M13221 6205 c23 -13 27 -22 33 -84 8 -78 7 -239 -1 -289 -3 -22 -14&#xA;-37 -32 -47 -24 -13 -19 -14 69 -14 73 0 89 3 70 10 -13 6 -28 15 -32 22 -4 7&#xA;-8 93 -8 192 0 99 4 185 8 192 4 7 19 16 32 22 19 7 3 10 -70 10 -88 0 -93 -1&#xA;-69 -14z"></path>
<path d="M13660 6210 c0 -6 -15 -49 -34 -98 -19 -48 -53 -135 -76 -194 -29&#xA;-75 -49 -113 -68 -127 l-27 -20 70 0 c61 1 66 3 43 12 -33 13 -35 33 -12 100&#xA;l16 47 83 0 82 0 22 -56 c27 -70 27 -70 -6 -88 -27 -14 -23 -15 62 -15 71 0&#xA;85 3 68 11 -23 11 -45 59 -121 258 -62 160 -71 180 -87 180 -8 0 -15 -5 -15&#xA;-10z m49 -207 l21 -53 -75 0 -74 0 24 63 c13 34 29 76 35 92 l13 30 17 -40&#xA;c10 -22 28 -64 39 -92z"></path>
<path d="M14293 6205 l27 -16 0 -194 0 -194 -27 -16 c-26 -15 -19 -15 107 -12&#xA;147 4 185 14 233 63 47 47 61 83 61 160 1 62 -3 77 -29 119 -21 35 -45 56 -80&#xA;74 -45 24 -62 26 -185 29 -126 2 -133 1 -107 -13z m200 -6 c50 -14 103 -61&#xA;118 -107 20 -59 15 -163 -10 -213 -25 -52 -54 -75 -113 -90 -31 -8 -51 -8 -70&#xA;0 l-28 11 0 205 0 205 33 0 c17 0 49 -5 70 -11z"></path>
<path d="M14820 6209 c13 -6 28 -15 32 -22 4 -7 8 -94 8 -195 l0 -182 -32 -20&#xA;-33 -20 183 0 182 0 0 23 c0 12 3 39 6 60 8 48 -6 47 -29 -2 -21 -47 -54 -65&#xA;-120 -65 -88 -1 -88 -1 -85 111 l3 98 48 -1 c52 -2 77 -16 77 -45 0 -11 5 -19&#xA;10 -19 6 0 10 30 10 70 0 40 -4 70 -10 70 -5 0 -10 -8 -10 -18 0 -24 -40 -42&#xA;-90 -42 l-40 0 0 101 0 102 70 -5 c77 -6 103 -21 126 -73 13 -29 13 -29 14 28&#xA;l0 57 -172 -1 c-125 0 -166 -3 -148 -10z"></path>
<path d="M16150 6022 c-54 -143 -83 -204 -103 -224 l-29 -28 68 0 c67 1 68 1&#xA;42 16 -32 17 -34 33 -12 97 l16 47 83 0 82 0 22 -56 c27 -70 27 -70 -6 -88&#xA;-27 -14 -23 -15 62 -15 68 0 85 3 69 11 -26 12 -41 43 -109 223 -74 195 -84&#xA;215 -98 215 -7 0 -45 -88 -87 -198z m115 -9 l24 -63 -76 0 c-68 0 -74 2 -68&#xA;18 4 9 21 52 37 96 l31 79 14 -34 c8 -19 25 -62 38 -96z"></path>
<path d="M16563 6205 l27 -16 0 -194 0 -194 -27 -15 c-26 -14 -23 -15 67 -15&#xA;91 1 94 1 62 15 l-33 14 3 88 c3 85 4 87 28 90 21 2 32 -7 67 -60 97 -148 97&#xA;-148 155 -148 l52 0 -32 28 c-17 15 -59 63 -91 107 -57 77 -59 80 -38 88 34&#xA;13 75 57 82 87 9 41 -18 96 -57 117 -26 14 -61 18 -163 20 -122 3 -128 2 -102&#xA;-12z m227 -30 c20 -21 25 -35 24 -77 0 -44 -5 -55 -32 -80 -25 -22 -42 -28&#xA;-77 -28 l-45 0 0 111 0 112 52 -6 c37 -5 59 -14 78 -32z"></path>
<path d="M17055 6209 c11 -7 23 -17 27 -23 4 -6 8 -95 8 -199 l0 -187 -25 -10&#xA;c-14 -5 -25 -12 -25 -15 0 -3 39 -5 88 -5 79 1 85 2 63 14 -33 18 -37 32 -33&#xA;115 4 70 4 71 31 71 24 0 37 -14 96 -100 l69 -100 55 1 c48 0 53 2 33 11 -13&#xA;7 -55 55 -94 107 l-70 96 30 12 c87 36 98 151 19 199 -26 15 -55 19 -162 22&#xA;-104 2 -126 0 -110 -9z m200 -13 c42 -18 55 -42 55 -100 0 -65 -30 -97 -97&#xA;-103 l-51 -5 -7 51 c-4 28 -4 78 0 111 7 58 8 60 36 60 16 0 45 -6 64 -14z"></path>
<path d="M17563 6204 l27 -15 0 -195 0 -194 -27 -13 c-24 -10 -1 -12 146 -15&#xA;96 -1 176 0 179 3 10 9 15 115 6 115 -5 0 -17 -18 -27 -39 -21 -47 -56 -66&#xA;-121 -66 -86 0 -86 0 -86 116 l0 102 51 -6 c53 -7 79 -20 79 -43 0 -7 5 -16&#xA;10 -19 6 -4 10 21 10 67 -1 66 -2 71 -15 53 -29 -41 -37 -45 -86 -45 l-50 0 3&#xA;98 3 97 42 3 c23 2 61 -2 83 -8 35 -9 45 -18 59 -51 20 -49 33 -50 27 -1 -3&#xA;20 -5 45 -5 55 -1 15 -16 17 -168 17 -155 -1 -166 -2 -140 -16z"></path>
<path d="M18000 6213 c48 -18 50 -26 50 -220 l0 -183 -32 -20 -33 -20 95 1&#xA;c80 0 91 2 70 12 -14 6 -28 16 -32 22 -4 5 -8 91 -8 191 0 191 2 199 50 217 8&#xA;3 -28 5 -80 5 -52 0 -88 -2 -80 -5z"></path>
<path d="M18290 6209 c13 -6 28 -15 32 -22 4 -7 8 -93 8 -192 0 -99 -4 -185&#xA;-8 -192 -4 -7 -19 -16 -32 -22 -19 -7 -3 -10 70 -10 85 0 92 1 71 13 -14 8&#xA;-28 22 -32 32 -12 29 -10 152 2 159 28 18 59 -9 124 -105 l69 -100 55 0 56 0&#xA;-28 18 c-15 9 -57 58 -92 107 l-64 90 34 17 c45 23 65 54 65 99 0 48 -38 95&#xA;-88 109 -50 13 -277 13 -242 -1z m205 -13 c42 -18 55 -42 55 -100 0 -65 -30&#xA;-97 -98 -104 l-52 -5 0 112 0 111 30 0 c17 0 46 -6 65 -14z"></path>
<path d="M18939 6193 c-108 -290 -143 -370 -170 -395 l-29 -28 67 0 c67 1 68&#xA;1 39 16 -31 17 -32 35 -2 107 l16 37 80 0 80 0 16 -37 c25 -60 23 -95 -6 -110&#xA;-22 -11 -15 -13 63 -13 l88 0 -26 23 c-22 19 -85 168 -162 385 -17 48 -39 54&#xA;-54 15z m35 -140 c16 -43 31 -84 33 -90 4 -10 -13 -13 -66 -13 -39 0 -71 4&#xA;-71 9 0 16 63 171 69 171 4 0 19 -35 35 -77z"></path>
<path d="M9160 5305 c-7 -9 -10 -18 -7 -22 8 -7 37 15 37 28 0 14 -16 11 -30&#xA;-6z"></path>
<path d="M13206 5295 c-6 -17 9 -21 19 -5 4 6 13 5 24 -2 10 -6 26 -8 35 -5&#xA;29 11 17 23 -28 25 -31 1 -46 -3 -50 -13z"></path>
<path d="M18670 5296 c0 -9 13 -13 42 -12 57 1 60 21 3 24 -32 1 -45 -2 -45&#xA;-12z"></path>
<path d="M8403 5245 c-40 -17 -53 -42 -53 -99 0 -66 33 -101 95 -101 39 0 51&#xA;5 71 28 34 40 34 118 -1 152 -13 14 -31 25 -39 25 -8 0 -20 2 -28 5 -7 2 -27&#xA;-2 -45 -10z m87 -35 c26 -26 27 -89 2 -120 -22 -27 -65 -29 -92 -5 -26 23 -28&#xA;100 -3 127 21 24 68 23 93 -2z"></path>
<path d="M9133 5252 c-12 -2 -34 -17 -48 -33 -59 -71 -11 -179 78 -179 63 0&#xA;111 88 83 153 -8 19 -19 38 -25 42 -20 12 -65 21 -88 17z m69 -39 c24 -29 29&#xA;-53 18 -93 -17 -63 -90 -75 -120 -20 -17 32 -12 88 10 110 25 25 72 26 92 3z"></path>
<path d="M9495 5252 c-31 -7 -45 -22 -45 -52 0 -31 19 -50 64 -65 23 -7 31&#xA;-16 31 -34 0 -39 -29 -49 -65 -22 -34 24 -51 21 -34 -7 18 -28 78 -38 108 -18&#xA;49 31 28 95 -36 111 -34 9 -50 28 -42 49 7 18 59 22 69 6 10 -16 35 -12 29 4&#xA;-7 18 -52 34 -79 28z"></path>
<path d="M10373 5249 c-63 -18 -86 -122 -39 -176 20 -23 32 -28 71 -28 39 0&#xA;51 5 71 28 26 31 33 101 13 139 -8 16 -69 51 -81 47 -2 0 -18 -5 -35 -10z m77&#xA;-39 c26 -26 27 -89 2 -120 -42 -52 -112 -13 -112 63 0 24 7 48 17 59 21 24 68&#xA;23 93 -2z"></path>
<path d="M12883 5249 c-77 -22 -86 -156 -13 -194 16 -8 30 -22 30 -30 0 -8 5&#xA;-15 10 -15 6 0 10 -4 10 -10 0 -5 -8 -10 -17 -10 -12 0 -14 -3 -7 -10 6 -6 18&#xA;-8 27 -4 19 7 22 35 6 51 -7 7 -1 14 20 22 28 12 47 38 36 49 -3 3 -13 -2 -23&#xA;-11 -10 -10 -33 -17 -50 -17 -38 0 -62 30 -62 80 0 72 64 107 109 59 13 -14&#xA;21 -17 26 -9 9 14 -21 46 -50 53 -11 3 -35 1 -52 -4z"></path>
<path d="M13575 5249 c-43 -12 -65 -46 -65 -101 0 -62 29 -97 87 -105 37 -5&#xA;45 -2 73 25 25 26 30 38 30 80 0 78 -53 120 -125 101z m79 -41 c23 -32 21&#xA;-101 -4 -123 -48 -43 -110 -6 -110 66 0 70 78 109 114 57z"></path>
<path d="M16212 5248 c-26 -13 -38 -49 -24 -74 5 -9 29 -25 53 -33 35 -13 44&#xA;-21 44 -40 0 -35 -37 -45 -70 -19 -29 22 -45 17 -29 -10 17 -27 58 -37 93 -23&#xA;60 26 52 81 -17 114 -33 16 -47 28 -47 42 0 26 40 32 65 10 13 -12 20 -13 25&#xA;-5 18 29 -53 57 -93 38z"></path>
<path d="M16859 5245 c-35 -19 -53 -65 -46 -117 7 -52 33 -78 85 -85 36 -5 45&#xA;-2 71 24 50 50 53 107 8 157 -28 31 -83 41 -118 21z m97 -36 c24 -26 23 -92&#xA;-1 -119 -25 -28 -79 -27 -99 2 -23 32 -20 94 4 118 26 26 72 26 96 -1z"></path>
<path d="M18338 5245 c-36 -20 -48 -44 -48 -98 0 -46 29 -97 55 -97 7 0 20&#xA;-11 29 -25 16 -24 16 -26 -5 -34 -20 -7 -20 -8 -4 -14 36 -14 61 33 28 52 -16&#xA;9 -16 10 -2 11 19 0 69 37 69 51 0 14 -21 11 -34 -5 -20 -25 -51 -28 -79 -5&#xA;-23 17 -27 28 -27 68 0 34 5 53 18 64 23 21 60 22 83 1 27 -24 45 -13 22 14&#xA;-24 29 -71 36 -105 17z"></path>
<path d="M19040 5249 c-38 -15 -59 -39 -66 -75 -20 -109 87 -175 162 -100 28&#xA;28 34 42 34 75 0 70 -69 123 -130 100z m74 -35 c39 -38 29 -120 -16 -142 -74&#xA;-35 -129 74 -70 141 19 21 65 22 86 1z"></path>
<path d="M7698 5145 c3 -105 18 -143 24 -62 3 41 4 42 46 48 47 6 62 20 62 60&#xA;0 39 -29 59 -86 59 l-49 0 3 -105z m92 71 c6 -8 10 -25 8 -38 -2 -19 -10 -24&#xA;-41 -26 -38 -3 -39 -3 -36 30 2 18 5 36 7 41 6 12 49 8 62 -7z"></path>
<path d="M8022 5148 c3 -103 20 -143 26 -60 4 54 29 57 56 7 11 -19 25 -40 33&#xA;-47 24 -20 26 0 3 40 l-22 40 21 21 c49 49 15 101 -68 101 l-52 0 3 -102z m93&#xA;68 c17 -12 18 -18 7 -40 -9 -20 -19 -26 -42 -26 -28 0 -30 2 -30 40 0 35 3 40&#xA;23 40 13 0 32 -6 42 -14z"></path>
<path d="M8740 5145 c0 -81 3 -106 13 -103 6 3 13 23 15 46 3 40 4 41 45 44&#xA;33 2 44 8 57 31 13 24 13 30 0 55 -14 24 -22 27 -73 30 l-57 3 0 -106z m100&#xA;70 c22 -26 -3 -65 -40 -65 -28 0 -30 2 -30 40 0 37 2 40 29 40 16 0 34 -7 41&#xA;-15z"></path>
<path d="M9772 5148 c2 -70 7 -103 16 -106 9 -3 12 22 12 102 0 89 -3 106 -15&#xA;106 -13 0 -15 -16 -13 -102z"></path>
<path d="M9990 5240 c0 -5 13 -10 30 -10 l29 0 3 -92 c2 -54 7 -93 13 -93 6 0&#xA;11 39 13 93 l3 92 29 0 c17 0 30 5 30 10 0 6 -32 10 -75 10 -43 0 -75 -4 -75&#xA;-10z"></path>
<path d="M11580 5150 l0 -100 54 0 c44 0 61 5 83 24 24 21 28 32 28 76 0 44&#xA;-4 55 -28 76 -22 19 -39 24 -83 24 l-54 0 0 -100z m109 63 c56 -46 25 -143&#xA;-45 -143 l-34 0 0 80 0 80 29 0 c16 0 38 -8 50 -17z"></path>
<path d="M11940 5144 c0 -80 3 -105 13 -102 8 3 13 36 15 106 2 86 0 102 -13&#xA;102 -12 0 -15 -17 -15 -106z"></path>
<path d="M12178 5145 c3 -104 18 -143 24 -63 4 59 29 62 59 9 12 -23 29 -41&#xA;36 -41 18 0 17 7 -8 47 l-21 34 21 15 c26 19 28 65 3 87 -12 11 -36 17 -68 17&#xA;l-49 0 3 -105z m86 79 c20 -8 21 -48 2 -64 -8 -6 -25 -10 -38 -8 -19 2 -24 10&#xA;-26 41 -3 34 -1 37 22 37 13 0 31 -3 40 -6z"></path>
<path d="M12510 5150 c0 -73 3 -100 13 -101 6 0 25 -3 41 -5 36 -6 76 3 76 16&#xA;0 6 -22 10 -50 10 l-50 0 0 35 c0 34 1 35 40 35 22 0 40 5 40 10 0 6 -18 10&#xA;-40 10 -39 0 -40 1 -40 35 0 35 0 35 44 35 25 0 48 5 51 10 4 6 -18 10 -59 10&#xA;l-66 0 0 -100z"></path>
<path d="M13227 5233 c-2 -10 -19 -55 -36 -100 -22 -60 -27 -83 -17 -83 7 0&#xA;18 11 24 25 10 21 19 25 52 25 34 0 42 -4 50 -25 5 -14 17 -25 26 -25 9 0 14&#xA;6 12 13 -59 160 -72 187 -88 187 -10 0 -20 -8 -23 -17z m52 -95 c1 -5 -12 -8&#xA;-29 -8 -35 0 -35 -1 -14 48 l16 37 13 -35 c8 -19 14 -38 14 -42z"></path>
<path d="M14800 5241 c0 -6 15 -11 33 -13 l32 -3 3 -93 c2 -68 6 -92 15 -89 8&#xA;2 12 33 13 93 l1 89 32 3 c63 6 29 22 -49 22 -44 0 -80 -4 -80 -9z"></path>
<path d="M15140 5150 c0 -82 3 -100 15 -100 11 0 15 11 15 40 0 52 29 56 53 6&#xA;9 -19 25 -40 37 -46 26 -14 25 -8 -4 38 l-24 38 25 28 c43 51 11 96 -69 96&#xA;l-48 0 0 -100z m94 65 c26 -27 2 -65 -41 -65 -20 0 -23 5 -23 40 0 36 3 40 24&#xA;40 14 0 31 -7 40 -15z"></path>
<path d="M15527 5242 c-11 -16 -67 -176 -67 -189 0 -24 21 -13 31 17 10 27 15&#xA;30 54 30 37 0 44 -3 49 -25 4 -14 13 -25 22 -25 17 0 17 3 -26 120 -25 69 -49&#xA;96 -63 72z m43 -103 c0 -12 -7 -14 -29 -11 -17 2 -28 9 -26 16 3 6 10 25 16&#xA;41 l11 30 14 -30 c7 -16 13 -37 14 -46z"></path>
<path d="M15820 5145 c0 -63 4 -105 10 -105 6 0 10 32 10 75 0 41 4 75 8 75 4&#xA;0 31 -34 60 -75 76 -109 96 -87 76 83 -10 76 -23 64 -26 -25 l-3 -78 -53 78&#xA;c-73 106 -82 103 -82 -28z"></path>
<path d="M16510 5150 c0 -82 3 -100 15 -100 11 0 15 12 15 45 l0 45 40 0 c22&#xA;0 40 5 40 10 0 6 -18 10 -40 10 -39 0 -40 1 -40 35 0 35 0 35 45 35 25 0 45 5&#xA;45 10 0 6 -27 10 -60 10 l-60 0 0 -100z"></path>
<path d="M17200 5144 c0 -80 3 -105 13 -102 6 3 13 23 15 46 2 33 7 42 21 42&#xA;11 0 24 -12 31 -29 13 -32 47 -68 56 -58 3 3 -5 23 -18 46 -21 37 -22 41 -6&#xA;53 9 7 20 25 23 40 10 41 -23 68 -85 68 l-50 0 0 -106z m94 70 c19 -18 19 -20&#xA;6 -45 -7 -12 -21 -19 -40 -19 -28 0 -30 2 -30 40 0 36 3 40 24 40 14 0 32 -7&#xA;40 -16z"></path>
<path d="M17540 5150 c0 -82 3 -100 15 -100 12 0 15 15 15 73 l0 72 33 -75&#xA;c17 -41 36 -74 41 -75 11 0 18 12 54 90 l27 60 3 -78 c2 -55 6 -77 15 -74 8 2&#xA;12 36 12 106 1 95 0 102 -18 99 -14 -2 -30 -25 -52 -75 -17 -40 -34 -75 -37&#xA;-78 -2 -3 -20 31 -39 75 -24 56 -39 80 -51 80 -16 0 -18 -11 -18 -100z"></path>
<path d="M18000 5213 c-7 -21 -23 -64 -36 -95 -28 -68 -28 -68 -9 -68 8 0 17&#xA;11 21 25 5 22 12 25 51 25 40 0 45 -3 54 -30 6 -16 18 -30 26 -30 8 0 13 6 11&#xA;13 -3 6 -20 54 -38 105 -37 105 -59 120 -80 55z m45 -40 c12 -29 13 -38 3 -45&#xA;-15 -9 -48 -11 -48 -2 0 11 23 84 26 84 2 0 11 -17 19 -37z"></path>
<path d="M18693 5233 c-4 -10 -21 -55 -39 -100 -26 -67 -29 -83 -17 -87 9 -4&#xA;18 4 25 24 9 27 14 30 52 30 37 0 43 -3 53 -30 11 -30 34 -42 32 -17 0 6 -15&#xA;53 -33 102 -33 90 -58 117 -73 78z m43 -99 c-3 -8 -17 -13 -31 -12 -26 2 -27&#xA;7 -2 68 l9 25 15 -34 c8 -18 12 -40 9 -47z"></path>
</g>
</svg>