<?xml version="1.0" standalone="no"?>

<svg version="1.0" xmlns="http://www.w3.org/2000/svg" width="1056.000000pt" height="1408.000000pt" viewBox="0 0 1056.000000 1408.000000" preserveAspectRatio="xMidYMid meet">
<metadata>
Created by potrace 1.16, written by Peter Selinger 2001-2019
</metadata>
<g transform="translate(0.000000,1408.000000) scale(0.100000,-0.100000)" fill="#000000" stroke="none">
<path d="M2500 10886 l0 -43 74 -6 c84 -7 161 -33 209 -70 45 -34 85 -113 96&#xA;-188 14 -94 14 -2443 0 -2565 -6 -54 -19 -121 -30 -150 -24 -63 -96 -143 -158&#xA;-174 -52 -26 -158 -50 -223 -50 l-48 0 0 -54 0 -54 523 -6 c287 -3 842 -8&#xA;1233 -11 l711 -6 6 148 c11 274 53 502 138 750 171 501 458 802 844 889 105&#xA;23 293 23 390 0 352 -85 565 -429 565 -914 0 -406 -160 -672 -450 -749 -90&#xA;-23 -321 -24 -407 0 -175 47 -257 131 -283 290 -6 36 -10 301 -10 640 l0 578&#xA;-22 -6 c-94 -28 -268 -181 -358 -317 -33 -49 -62 -99 -65 -111 -2 -12 -6 -231&#xA;-8 -487 -3 -409 -5 -471 -21 -518 -19 -59 -76 -129 -112 -138 -16 -4 -24 -13&#xA;-24 -29 l0 -22 638 -7 c772 -9 862 -3 1058 73 122 47 211 107 309 205 151 153&#xA;217 296 246 531 19 153 -10 382 -66 524 -110 281 -364 482 -687 545 -60 12&#xA;-108 24 -108 27 0 4 28 18 63 33 221 96 383 279 444 506 24 91 24 319 -1 410&#xA;-62 229 -253 425 -490 505 -173 58 -166 58 -898 62 l-678 4 0 -44 0 -44 68 -6&#xA;c149 -13 225 -80 251 -222 7 -39 11 -320 11 -847 l0 -788 -45 -61 c-65 -88&#xA;-127 -203 -250 -463 -126 -265 -194 -373 -296 -472 -185 -178 -373 -251 -679&#xA;-261 -363 -12 -528 67 -581 277 -12 45 -14 278 -14 1340 l0 1285 24 52 c42 94&#xA;121 145 246 161 48 6 60 10 59 25 -1 9 -2 28 -3 42 l-1 25 -595 0 -595 0 0&#xA;-44z m3602 -81 c268 -56 425 -274 445 -615 14 -249 -51 -468 -179 -606 -94&#xA;-100 -185 -138 -404 -169 -93 -13 -173 -31 -267 -62 -17 -5 -18 23 -15 653 3&#xA;608 4 662 21 699 30 66 54 85 132 105 50 13 196 10 267 -5z"></path>
<path d="M1632 5699 c-91 -45 -125 -172 -72 -269 45 -82 154 -113 248 -70 39&#xA;18 42 22 42 60 0 22 -2 40 -4 40 -3 0 -15 -18 -27 -40 -40 -71 -129 -90 -176&#xA;-37 -31 34 -42 60 -49 118 -8 68 9 130 46 172 24 27 35 32 74 32 36 0 51 -6&#xA;76 -30 17 -16 33 -40 36 -52 10 -37 24 -26 24 17 0 38 -3 42 -42 60 -57 26&#xA;-122 25 -176 -1z"></path>
<path d="M2040 5701 c-84 -44 -123 -162 -82 -253 40 -91 140 -131 237 -93 108&#xA;41 147 194 74 296 -44 62 -160 87 -229 50z m153 -21 c75 -65 76 -223 2 -297&#xA;-52 -52 -126 -42 -167 25 -30 48 -36 157 -13 218 32 84 115 109 178 54z"></path>
<path d="M2848 5704 c-33 -18 -48 -43 -48 -82 0 -43 34 -79 105 -111 35 -16&#xA;68 -38 74 -49 37 -69 -27 -130 -102 -99 -23 10 -40 28 -55 58 l-22 44 0 -47&#xA;c0 -46 1 -47 45 -64 95 -36 185 10 185 95 0 46 -29 79 -98 111 -89 42 -115 87&#xA;-72 130 39 39 106 12 135 -54 l13 -31 1 43 c1 40 -1 44 -34 58 -44 18 -92 17&#xA;-127 -2z"></path>
<path d="M4380 5709 c-32 -13 -78 -56 -96 -91 -24 -45 -18 -144 11 -194 54&#xA;-92 196 -113 273 -41 71 66 84 192 26 264 -17 21 -46 46 -65 55 -37 20 -109&#xA;23 -149 7z m121 -15 c92 -47 91 -286 -1 -331 -71 -36 -140 3 -166 94 -46 159&#xA;51 297 167 237z"></path>
<path d="M7114 5701 c-99 -45 -133 -186 -68 -284 47 -72 154 -97 242 -57 40&#xA;18 42 21 41 62 0 38 -2 41 -12 24 -7 -11 -26 -36 -44 -55 -27 -31 -37 -36 -76&#xA;-36 -84 0 -134 81 -125 199 9 109 63 167 142 152 36 -7 96 -64 96 -91 0 -8 5&#xA;-15 10 -15 6 0 10 18 10 40 0 38 -3 42 -42 60 -54 25 -121 25 -174 1z"></path>
<path d="M603 5703 c29 -8 37 -46 37 -182 0 -128 -6 -152 -40 -164 -8 -3 51&#xA;-6 133 -6 l147 -1 0 45 c0 49 -14 60 -24 20 -10 -39 -46 -57 -108 -53 l-53 3&#xA;0 165 0 164 25 7 c15 4 -8 7 -55 7 -44 0 -72 -2 -62 -5z"></path>
<path d="M968 5700 c22 -9 22 -13 22 -170 0 -157 0 -161 -22 -170 -16 -6 13&#xA;-9 92 -9 97 -1 120 2 147 19 62 37 51 127 -18 153 -36 14 -36 18 0 38 34 20&#xA;46 60 29 97 -20 42 -52 52 -168 51 -73 0 -98 -3 -82 -9z m182 -20 c13 -13 20&#xA;-33 20 -59 0 -48 -35 -81 -86 -81 l-34 0 0 80 0 80 40 0 c27 0 47 -7 60 -20z&#xA;m14 -171 c21 -16 26 -29 26 -63 0 -60 -31 -88 -91 -84 l-44 3 -3 83 -3 82 44&#xA;0 c30 0 53 -7 71 -21z"></path>
<path d="M2388 5694 c21 -15 22 -21 22 -170 0 -151 -1 -155 -22 -164 -18 -7&#xA;-11 -9 32 -9 43 0 50 2 33 9 -22 9 -23 14 -23 145 0 74 2 135 4 135 2 0 51&#xA;-63 110 -140 106 -139 122 -157 133 -146 3 3 5 67 5 143 -1 164 3 192 31 203&#xA;16 6 6 9 -38 9 -46 0 -55 -2 -37 -9 12 -5 25 -16 28 -23 2 -7 3 -67 2 -132&#xA;l-3 -118 -108 141 -108 142 -42 0 c-40 0 -41 0 -19 -16z"></path>
<path d="M3120 5697 c24 -12 25 -16 30 -143 4 -103 9 -136 23 -158 48 -73 186&#xA;-73 234 0 14 22 19 55 23 158 5 127 6 131 30 143 23 12 20 13 -35 12 -44 0&#xA;-54 -3 -39 -9 20 -8 22 -18 26 -97 5 -130 -3 -182 -36 -210 -32 -27 -83 -30&#xA;-126 -8 -40 21 -52 68 -48 195 3 100 4 105 28 117 22 11 16 13 -55 13 -71 0&#xA;-77 -2 -55 -13z"></path>
<path d="M3568 5700 c22 -9 22 -13 22 -170 0 -157 0 -161 -22 -170 -16 -6 24&#xA;-9 120 -9 l142 -1 0 48 -1 47 -20 -37 c-21 -42 -43 -51 -110 -46 l-44 3 -3&#xA;163 c-2 161 -2 163 20 172 17 6 3 9 -52 9 -55 0 -69 -3 -52 -9z"></path>
<path d="M3867 5663 c-7 -60 -2 -65 17 -20 17 42 45 59 89 55 l31 -3 3 -130&#xA;c4 -159 -1 -193 -30 -205 -16 -6 0 -9 53 -9 55 0 69 3 53 9 -23 9 -23 13 -23&#xA;175 l0 165 33 0 c39 0 74 -23 89 -59 l12 -26 4 24 c2 12 1 34 -2 47 l-6 24&#xA;-159 0 -158 0 -6 -47z"></path>
<path d="M4720 5697 c25 -12 25 -15 28 -152 3 -162 0 -182 -31 -188 -12 -2 14&#xA;-4 58 -5 46 0 69 3 55 7 -23 6 -25 12 -28 79 -3 71 -2 72 22 72 19 0 36 -17&#xA;81 -80 55 -78 57 -80 98 -80 39 0 40 1 21 14 -11 8 -44 47 -72 86 -51 69 -52&#xA;71 -30 79 37 14 60 47 60 86 0 71 -48 95 -189 95 -86 0 -95 -2 -73 -13z m185&#xA;-22 c47 -46 27 -128 -36 -146 -63 -19 -69 -11 -69 86 l0 85 40 0 c30 0 47 -7&#xA;65 -25z"></path>
<path d="M5120 5703 c35 -12 40 -35 40 -173 0 -138 -5 -161 -40 -173 -8 -3 19&#xA;-5 60 -6 55 0 69 3 53 9 -23 9 -23 13 -23 168 0 155 1 159 23 170 18 9 8 11&#xA;-53 11 -41 -1 -68 -3 -60 -6z"></path>
<path d="M5475 5674 c-8 -20 -15 -38 -15 -40 0 -2 -23 -63 -51 -135 -38 -96&#xA;-57 -133 -72 -139 -16 -6 -8 -9 33 -8 30 0 48 2 38 5 -25 6 -27 24 -9 73 l17&#xA;45 64 0 c60 0 66 -2 77 -26 7 -15 16 -40 19 -57 5 -26 3 -31 -17 -35 -13 -2&#xA;10 -5 51 -5 46 0 67 2 55 7 -14 6 -38 55 -86 176 -36 93 -71 171 -77 173 -6 2&#xA;-18 -13 -27 -34z m36 -101 c13 -37 26 -71 27 -75 2 -4 -23 -8 -57 -8 l-60 0&#xA;27 75 c15 41 29 75 33 75 3 0 16 -30 30 -67z"></path>
<path d="M5998 5700 c22 -9 22 -13 22 -170 0 -157 0 -161 -22 -170 -16 -6 10&#xA;-9 85 -9 124 -1 158 9 204 62 54 62 55 164 1 232 -38 49 -90 65 -208 64 -73 0&#xA;-98 -3 -82 -9z m191 -18 c52 -26 72 -61 78 -134 10 -120 -45 -193 -140 -186&#xA;l-42 3 -3 168 -2 167 37 0 c21 0 53 -8 72 -18z"></path>
<path d="M6430 5701 l25 -7 3 -162 c2 -161 2 -163 -20 -172 -16 -6 25 -9 125&#xA;-9 l147 -1 0 46 c0 27 -4 43 -10 39 -5 -3 -10 -12 -10 -19 0 -7 -10 -22 -23&#xA;-34 -19 -18 -35 -22 -85 -22 -72 0 -75 5 -70 105 l3 60 42 3 c39 3 44 0 63&#xA;-30 l20 -33 0 65 0 65 -23 -28 c-19 -24 -28 -28 -62 -25 l-40 3 -3 78 -3 77&#xA;56 0 c68 0 92 -12 110 -53 l14 -32 1 48 0 47 -142 -1 c-79 -1 -132 -4 -118 -8z"></path>
<path d="M7525 5588 c-27 -68 -56 -143 -65 -168 -10 -26 -28 -50 -41 -57 -21&#xA;-11 -17 -13 36 -11 33 0 50 3 38 5 -27 5 -30 36 -8 89 l14 35 63 -3 c61 -3 63&#xA;-4 80 -38 24 -50 23 -78 -4 -83 -13 -2 11 -5 52 -5 45 0 67 3 55 7 -14 6 -38&#xA;56 -85 176 -36 93 -70 170 -77 172 -6 2 -31 -47 -58 -119z m70 -21 c14 -37 25&#xA;-70 25 -72 0 -3 -27 -5 -60 -5 l-59 0 25 67 c28 73 34 86 40 81 2 -2 15 -34&#xA;29 -71z"></path>
<path d="M7840 5703 c27 -11 30 -26 30 -181 0 -149 -1 -153 -22 -162 -17 -6&#xA;-2 -9 52 -8 41 0 66 3 55 5 -29 8 -35 21 -35 91 0 61 0 62 28 62 23 0 35 -13&#xA;80 -80 l52 -80 48 1 c26 1 39 3 30 6 -16 4 -128 144 -128 160 0 5 13 14 29 21&#xA;60 27 64 104 8 146 -24 18 -44 21 -135 23 -59 1 -100 0 -92 -4z m184 -24 c48&#xA;-38 27 -146 -29 -150 -8 -1 -27 -2 -42 -3 l-28 -1 -3 88 -3 87 39 0 c25 0 49&#xA;-8 66 -21z"></path>
<path d="M8247 5700 c25 -10 36 -64 29 -145 -2 -27 -4 -81 -5 -118 -1 -60 -3&#xA;-69 -23 -77 -17 -6 -3 -9 52 -9 55 0 69 3 53 9 -21 8 -23 16 -23 80 0 67 1 70&#xA;23 70 18 0 36 -19 78 -80 l54 -80 45 1 c37 0 41 2 25 10 -18 9 -125 149 -125&#xA;163 0 3 7 6 15 6 27 0 65 47 65 80 0 76 -45 100 -187 99 -67 0 -91 -3 -76 -9z&#xA;m183 -18 c13 -10 23 -33 27 -58 4 -33 1 -45 -18 -67 -23 -25 -40 -31 -86 -28&#xA;-22 1 -23 5 -23 86 l0 85 39 0 c22 0 48 -8 61 -18z"></path>
<path d="M8658 5700 c22 -9 22 -13 22 -170 0 -157 0 -161 -22 -170 -16 -6 26&#xA;-9 125 -9 l147 -1 0 46 c0 27 -4 43 -10 39 -5 -3 -10 -12 -10 -19 0 -7 -11&#xA;-23 -24 -35 -20 -19 -33 -22 -82 -19 l-59 3 -3 83 -3 82 40 0 c31 0 44 -6 60&#xA;-26 l21 -27 0 59 c-1 49 -2 56 -12 39 -16 -29 -28 -35 -70 -35 l-38 0 0 80 0&#xA;80 51 0 c62 0 87 -12 104 -53 l14 -32 1 48 0 47 -137 -1 c-93 0 -131 -3 -115&#xA;-9z"></path>
<path d="M9028 5700 c22 -9 22 -13 22 -170 0 -157 0 -161 -22 -170 -17 -6 -3&#xA;-9 52 -9 51 0 68 3 54 9 -18 7 -22 19 -27 103 -4 53 -4 126 0 162 5 55 10 68&#xA;27 75 14 6 -3 9 -54 9 -55 0 -69 -3 -52 -9z"></path>
<path d="M9258 5700 c22 -9 22 -13 22 -170 0 -157 0 -161 -22 -170 -17 -6 -2&#xA;-9 52 -8 41 0 65 3 53 5 -21 4 -23 10 -23 79 0 70 1 74 23 74 17 0 35 -19 76&#xA;-80 l54 -80 46 1 c25 1 38 3 29 6 -16 4 -135 161 -127 167 2 1 16 7 32 14 62&#xA;27 61 119 -3 153 -27 15 -56 19 -135 18 -70 0 -93 -3 -77 -9z m166 -11 c45&#xA;-21 56 -108 17 -143 -9 -8 -35 -17 -58 -21 l-43 -6 0 91 0 90 30 0 c16 0 40&#xA;-5 54 -11z"></path>
<path d="M9771 5668 c-10 -24 -37 -95 -61 -158 -25 -67 -53 -124 -67 -137&#xA;l-24 -23 53 1 c44 0 49 2 29 10 -19 8 -22 14 -16 37 17 70 25 77 94 78 62 2&#xA;63 1 76 -30 28 -68 28 -76 3 -85 -18 -8 -7 -10 46 -10 66 -1 68 0 48 17 -12 9&#xA;-45 82 -76 162 -30 80 -57 153 -61 163 -11 28 -24 20 -44 -25z m43 -110 l25&#xA;-68 -59 0 c-33 0 -60 2 -60 4 0 21 55 145 61 139 4 -4 19 -38 33 -75z"></path>
<path d="M1820 4960 c-6 -11 -7 -20 -2 -20 10 0 32 21 32 32 0 16 -19 8 -30&#xA;-12z"></path>
<path d="M5122 4967 c-9 -10 -2 -13 29 -14 21 -1 39 3 39 8 0 6 -6 9 -12 6 -7&#xA;-2 -20 -1 -29 4 -11 5 -21 4 -27 -4z"></path>
<path d="M9560 4962 c0 -4 16 -8 35 -9 19 -2 35 0 35 5 0 4 -16 8 -35 9 -19 2&#xA;-35 0 -35 -5z"></path>
<path d="M1210 4917 c-56 -28 -62 -108 -12 -148 53 -41 122 -1 122 71 0 65&#xA;-56 105 -110 77z m70 -27 c38 -38 13 -120 -37 -120 -29 0 -53 31 -53 68 0 64&#xA;50 92 90 52z"></path>
<path d="M1790 4917 c-55 -28 -62 -108 -13 -147 56 -44 123 -5 123 70 0 38&#xA;-26 80 -49 80 -5 0 -15 2 -23 5 -7 3 -24 -1 -38 -8z m70 -27 c38 -38 13 -120&#xA;-37 -120 -29 0 -53 31 -53 68 0 64 50 92 90 52z"></path>
<path d="M2082 4919 c-36 -14 -27 -59 17 -81 49 -24 57 -34 41 -53 -16 -20&#xA;-39 -19 -62 2 -10 9 -21 13 -26 9 -9 -10 35 -46 57 -46 25 0 61 29 61 49 0 20&#xA;-23 42 -62 59 -31 13 -37 39 -12 49 9 3 25 1 36 -6 21 -13 38 -7 22 8 -16 15&#xA;-48 20 -72 10z"></path>
<path d="M2804 4916 c-35 -15 -44 -32 -44 -81 0 -69 73 -107 124 -63 39 33 45&#xA;87 15 120 -31 34 -57 40 -95 24z m68 -23 c25 -22 24 -84 -2 -108 -26 -24 -68&#xA;-13 -81 22 -26 69 33 131 83 86z"></path>
<path d="M4844 4918 c-24 -11 -44 -48 -44 -78 0 -24 21 -70 31 -70 4 0 20 -11&#xA;34 -24 24 -23 25 -25 8 -35 -16 -9 -16 -10 5 -11 15 0 22 6 22 20 0 11 -6 20&#xA;-12 20 -7 0 2 9 20 20 17 11 32 24 32 30 0 14 -11 12 -31 -6 -26 -24 -65 -11&#xA;-77 26 -24 66 33 126 78 85 11 -10 23 -15 28 -11 9 10 -36 46 -57 45 -9 0 -26&#xA;-5 -37 -11z"></path>
<path d="M5414 4920 c-69 -28 -70 -133 -2 -161 45 -18 95 8 104 56 9 50 -2 82&#xA;-36 100 -33 17 -36 17 -66 5z m60 -26 c38 -37 26 -109 -20 -120 -55 -14 -91&#xA;70 -49 116 22 24 48 26 69 4z"></path>
<path d="M7559 4918 c-39 -31 -29 -66 23 -84 25 -8 33 -17 33 -35 0 -30 -29&#xA;-37 -56 -13 -10 9 -22 14 -27 10 -10 -10 36 -46 59 -46 22 0 59 34 59 53 0 17&#xA;-26 39 -62 55 -30 12 -37 39 -14 48 8 3 24 0 36 -6 23 -12 40 -6 24 9 -17 17&#xA;-59 22 -75 9z"></path>
<path d="M8093 4920 c-29 -12 -43 -40 -43 -89 0 -72 72 -104 127 -57 71 61 2&#xA;182 -84 146z m65 -26 c16 -11 22 -25 22 -54 0 -39 -25 -70 -57 -70 -23 0 -53&#xA;39 -53 70 0 31 30 70 53 70 7 0 23 -7 35 -16z"></path>
<path d="M9293 4920 c-28 -11 -43 -40 -43 -82 0 -38 24 -78 46 -78 8 0 14 -7&#xA;14 -15 0 -8 5 -15 10 -15 17 0 11 -18 -7 -23 -14 -4 -13 -5 4 -6 27 -1 38 15&#xA;23 34 -10 12 -8 16 13 24 13 5 27 17 30 25 8 20 -7 21 -23 1 -18 -22 -57 -18&#xA;-74 7 -22 31 -20 74 4 98 24 24 39 25 66 5 24 -18 35 -19 28 -1 -5 13 -47 37&#xA;-62 35 -4 0 -17 -4 -29 -9z"></path>
<path d="M9575 4896 c-44 -105 -54 -136 -45 -141 6 -4 14 5 20 19 8 21 16 26&#xA;43 26 27 0 36 -6 45 -26 7 -14 16 -23 21 -20 9 6 -42 153 -59 170 -6 6 -16 -5&#xA;-25 -28z m39 -53 c6 -20 4 -23 -18 -23 -29 0 -31 7 -14 45 12 27 19 23 32 -22z"></path>
<path d="M9852 4920 c-28 -12 -52 -66 -45 -103 6 -33 47 -67 79 -67 12 0 35&#xA;10 50 23 21 19 27 32 27 66 0 65 -54 104 -111 81z m68 -30 c36 -36 15 -120&#xA;-31 -120 -29 0 -59 36 -59 70 0 32 30 70 55 70 8 0 24 -9 35 -20z"></path>
<path d="M633 4840 c1 -56 6 -80 15 -80 7 0 12 13 12 30 0 24 4 30 21 30 36 0&#xA;59 19 59 48 0 39 -17 52 -67 52 l-43 0 3 -80z m62 60 c37 -14 32 -54 -7 -58&#xA;-26 -3 -28 -1 -28 32 0 40 -1 40 35 26z"></path>
<path d="M900 4840 c0 -47 4 -80 10 -80 6 0 10 14 10 30 0 41 33 41 50 1 6&#xA;-16 18 -32 26 -35 19 -7 18 9 -2 40 -15 23 -15 26 0 43 19 21 21 52 4 69 -7 7&#xA;-31 12 -55 12 l-43 0 0 -80z m82 46 c16 -23 -17 -54 -46 -43 -16 6 -22 47 -9&#xA;60 9 9 46 -2 55 -17z"></path>
<path d="M1482 4838 c2 -49 7 -82 13 -81 6 2 10 15 10 30 1 15 5 28 10 29 6 1&#xA;22 5 37 8 39 9 54 41 33 72 -13 20 -24 24 -61 24 l-45 0 3 -82z m72 59 c26&#xA;-19 17 -51 -17 -55 -25 -3 -27 -1 -27 32 0 39 13 45 44 23z"></path>
<path d="M2322 4838 c4 -106 22 -105 26 2 2 67 0 80 -13 80 -13 0 -15 -13 -13&#xA;-82z"></path>
<path d="M2505 4910 c3 -5 15 -10 26 -10 17 0 19 -7 19 -70 0 -40 4 -70 10&#xA;-70 6 0 10 30 10 70 0 68 1 70 25 70 14 0 25 5 25 10 0 6 -27 10 -61 10 -37 0&#xA;-58 -4 -54 -10z"></path>
<path d="M3790 4840 l0 -80 49 0 c42 0 53 4 70 26 50 63 11 134 -72 134 l-47&#xA;0 0 -80z m99 44 c23 -21 18 -74 -8 -96 -13 -10 -32 -18 -42 -18 -17 0 -19 8&#xA;-19 63 0 35 3 67 7 70 9 9 44 -2 62 -19z"></path>
<path d="M4090 4840 c0 -47 4 -80 10 -80 6 0 10 33 10 80 0 47 -4 80 -10 80&#xA;-6 0 -10 -33 -10 -80z"></path>
<path d="M4280 4840 c0 -47 4 -80 10 -80 6 0 10 14 10 30 0 23 5 30 19 30 11&#xA;0 23 -12 31 -30 7 -16 19 -30 27 -30 12 0 11 6 -5 31 -19 31 -19 32 -1 50 38&#xA;38 11 79 -52 79 l-39 0 0 -80z m74 54 c22 -21 4 -54 -29 -54 -22 0 -25 4 -25&#xA;35 0 28 4 35 19 35 11 0 27 -7 35 -16z"></path>
<path d="M4550 4840 l0 -80 53 1 c47 1 49 2 19 9 -38 9 -37 8 -46 38 -7 20 -4&#xA;22 28 22 45 0 47 18 4 22 -28 2 -33 7 -33 28 0 22 4 25 32 22 17 -2 34 2 38 7&#xA;4 7 -12 11 -44 11 l-51 0 0 -80z"></path>
<path d="M5129 4893 c-31 -80 -47 -133 -39 -133 5 0 14 9 20 20 7 14 21 20 45&#xA;20 25 0 35 -5 40 -20 3 -11 11 -20 16 -20 13 0 12 3 -17 86 -28 79 -47 93 -65&#xA;47z m39 -40 c10 -31 10 -33 -14 -33 -27 0 -29 6 -14 46 12 31 13 30 28 -13z"></path>
<path d="M6415 4910 c3 -5 17 -10 31 -10 23 0 24 -2 24 -70 0 -40 4 -70 10&#xA;-70 6 0 10 30 10 70 0 63 2 70 19 70 11 0 23 5 26 10 4 6 -18 10 -60 10 -42 0&#xA;-64 -4 -60 -10z"></path>
<path d="M6690 4841 c0 -47 4 -81 10 -81 6 0 10 14 10 30 0 23 5 30 19 30 11&#xA;0 23 -12 31 -30 7 -16 19 -30 27 -30 12 0 11 6 -4 33 -20 32 -20 33 1 48 18&#xA;14 19 21 11 45 -9 26 -16 29 -58 32 l-47 3 0 -80z m68 60 c8 -4 12 -19 10 -32&#xA;-2 -18 -10 -25 -30 -27 -25 -3 -28 0 -28 26 0 41 17 53 48 33z"></path>
<path d="M6976 4846 c-27 -74 -31 -128 -6 -73 11 22 20 27 48 27 25 0 35 -5&#xA;39 -20 3 -11 11 -20 19 -20 19 0 -37 154 -58 158 -11 2 -23 -19 -42 -72z m59&#xA;2 c6 -25 5 -28 -19 -28 -30 0 -29 -2 -15 39 12 35 24 31 34 -11z"></path>
<path d="M7240 4833 c0 -99 17 -105 22 -8 l3 60 40 -62 c53 -83 75 -85 75 -5&#xA;0 31 -3 67 -6 80 -12 42 -24 22 -24 -40 l0 -63 -41 63 c-58 87 -69 83 -69 -25z"></path>
<path d="M7800 4840 c0 -78 16 -112 22 -47 3 28 7 32 36 35 17 2 32 7 32 12 0&#xA;5 -15 10 -32 12 -28 2 -33 7 -33 28 0 22 4 25 32 22 17 -2 34 1 38 7 4 7 -11&#xA;11 -44 11 l-51 0 0 -80z"></path>
<path d="M8360 4840 c0 -64 3 -80 15 -80 10 0 15 10 15 30 0 41 23 39 49 -5&#xA;11 -19 25 -35 31 -35 15 0 13 8 -12 42 -19 28 -20 31 -5 40 20 10 23 58 5 76&#xA;-7 7 -31 12 -55 12 l-43 0 0 -80z m88 35 c4 -19 -13 -35 -40 -35 -14 0 -18 8&#xA;-18 34 0 32 1 34 28 27 15 -4 29 -16 30 -26z"></path>
<path d="M8640 4841 c0 -95 18 -110 22 -18 l3 62 24 -62 c13 -35 29 -63 36&#xA;-63 7 0 24 26 37 57 l23 57 5 -57 c8 -87 25 -74 28 21 3 74 1 82 -16 82 -13 0&#xA;-25 -17 -42 -57 -12 -32 -26 -61 -30 -66 -3 -4 -18 21 -32 55 -14 35 -33 64&#xA;-42 66 -14 3 -16 -8 -16 -77z"></path>
<path d="M8997 4847 c-15 -41 -27 -77 -27 -80 0 -16 19 -5 25 13 5 15 15 20&#xA;41 20 28 0 36 -5 44 -25 9 -23 30 -35 30 -17 0 24 -60 157 -71 160 -9 2 -24&#xA;-23 -42 -71z m58 1 c7 -25 5 -28 -20 -28 -22 0 -26 3 -20 18 4 9 10 25 12 35&#xA;7 23 19 11 28 -25z"></path>
</g>
</svg>