<?xml version="1.0" standalone="no"?>

<svg version="1.0" xmlns="http://www.w3.org/2000/svg" width="1248.000000pt" height="1248.000000pt" viewBox="0 0 1248.000000 1248.000000" preserveAspectRatio="xMidYMid meet">
<metadata>
Created by potrace 1.16, written by Peter Selinger 2001-2019
</metadata>
<g transform="translate(0.000000,1248.000000) scale(0.100000,-0.100000)" fill="#000000" stroke="none">
<path d="M2904 8286 c-3 -8 -4 -31 -2 -52 l3 -39 70 -6 c98 -9 207 -44 257&#xA;-82 60 -46 102 -121 116 -206 9 -51 12 -483 12 -1573 0 -1640 0 -1640 -56&#xA;-1749 -34 -68 -107 -145 -166 -175 -58 -29 -155 -53 -257 -62 l-76 -7 -3 -61&#xA;-3 -62 393 -6 c216 -3 879 -9 1473 -12 594 -3 1084 -7 1090 -8 6 0 13 55 17&#xA;139 25 499 132 943 310 1275 249 468 562 701 1004 751 237 26 469 -33 639&#xA;-164 178 -136 291 -343 351 -641 23 -112 27 -157 27 -311 0 -158 -3 -194 -26&#xA;-296 -33 -146 -67 -232 -134 -335 -145 -223 -337 -304 -693 -292 -128 5 -157&#xA;9 -232 35 -146 51 -222 122 -270 254 l-23 64 -3 743 c-2 408 -5 742 -8 742&#xA;-16 0 -119 -61 -179 -105 -124 -91 -229 -210 -316 -357 l-39 -66 0 -495 c0&#xA;-573 -7 -673 -51 -765 -29 -60 -47 -77 -124 -118 -11 -7 -20 -21 -20 -35 l0&#xA;-24 670 -8 c759 -9 937 -5 1115 23 291 45 518 169 684 370 101 123 132 178&#xA;187 340 94 271 72 660 -53 930 -142 307 -407 510 -777 595 -60 14 -119 25&#xA;-130 25 -43 0 -18 21 84 69 126 60 237 141 311 229 77 90 99 126 144 230 115&#xA;266 92 628 -54 855 -152 238 -392 381 -730 434 -99 16 -197 18 -881 18 l-770&#xA;0 -1 -47 -1 -47 56 -6 c67 -8 164 -38 208 -65 43 -26 99 -105 114 -160 10 -34&#xA;14 -293 16 -1030 l3 -985 -57 -83 c-114 -163 -154 -238 -294 -545 -134 -295&#xA;-207 -412 -341 -553 -165 -172 -337 -263 -598 -316 -150 -31 -444 -31 -575 -1&#xA;-169 40 -256 94 -313 196 -72 128 -72 136 -72 1750 0 1406 1 1444 20 1525 12&#xA;51 32 101 50 127 49 71 150 121 270 133 61 7 65 8 64 32 -1 14 -2 37 -3 53&#xA;l-1 27 -710 0 c-592 0 -712 -3 -716 -14z m4251 -127 c342 -41 545 -258 596&#xA;-635 19 -143 7 -387 -25 -509 -43 -162 -123 -299 -224 -381 -110 -90 -222&#xA;-129 -448 -159 -114 -14 -256 -50 -303 -74 -11 -6 -22 -11 -25 -11 -10 0 -6&#xA;1481 4 1558 18 140 75 194 221 211 105 12 105 12 204 0z"></path>
</g>
<rect x="878" y="775" width="56" height="56" fill="#C9A961"/>
</svg>